<?xml version="1.0" encoding="UTF-8"?>
<svg version="1.1" xmlns="http://www.w3.org/2000/svg" width="1024" height="1024">
<path d="M0 0 C337.92 0 675.84 0 1024 0 C1024 337.92 1024 675.84 1024 1024 C686.08 1024 348.16 1024 0 1024 C0 686.08 0 348.16 0 0 Z " fill="#FDFEFE" transform="translate(0,0)"/>
<path d="M0 0 C5.37492589 6.80312048 7.81692548 14.73790259 10 23 C10.1959375 23.6703125 10.391875 24.340625 10.59375 25.03125 C13.25777025 37.941502 9.42782369 52.52663933 2.43359375 63.4453125 C0.71579435 65.73305462 -1.09065903 67.86990358 -3 70 C-3.64582031 70.75023437 -4.29164063 71.50046875 -4.95703125 72.2734375 C-16.2430231 84.54355109 -33.87814464 92.10155923 -50.53271484 93.16113281 C-80.85232809 93.63651782 -80.85232809 93.63651782 -94.75390625 86.57421875 C-101.45351935 84.8614481 -110.64961765 91.62771379 -116.56445312 94.54296875 C-117.47517578 94.98511719 -118.38589844 95.42726563 -119.32421875 95.8828125 C-120.5630481 96.49213623 -120.5630481 96.49213623 -121.8269043 97.11376953 C-124 98 -124 98 -127 98 C-127 86.78 -127 75.56 -127 64 C-124.07125 63.566875 -121.1425 63.13375 -118.125 62.6875 C-111.85580797 61.73096568 -105.8212006 60.64309664 -99.8125 58.55078125 C-98 58 -98 58 -95 58 C-95.061875 56.948125 -95.12375 55.89625 -95.1875 54.8125 C-94.98895388 50.77539551 -94.49309937 49.11637422 -92 46 C-88.84811381 43.98252113 -86.90632298 43.94415939 -83.25 44.375 C-78.98117808 44.43125095 -77.02542192 43.77665751 -73.9375 40.8125 C-69.08500775 35.29785504 -65.0370429 29.12256921 -61 23 C-60.01 21.515 -60.01 21.515 -59 20 C-57.0625 20.375 -57.0625 20.375 -55 21 C-54.505 21.99 -54.505 21.99 -54 23 C-57.84942239 29.28361597 -61.67399686 34.82143577 -66.9074707 39.98754883 C-71.9654607 44.66960206 -71.9654607 44.66960206 -74.4375 50.8671875 C-74.11018532 53.47920514 -74.11018532 53.47920514 -73.46875 55.91015625 C-73 58 -73 58 -74.0625 60.9375 C-77.30929495 64.39376559 -80.43566775 65.81228013 -85.125 66.375 C-88 66 -88 66 -89.8125 64.375 C-92.12019463 62.58767118 -92.12019463 62.58767118 -95.8125 63.625 C-96.58078125 63.83125 -97.3490625 64.0375 -98.140625 64.25 C-101.75422106 65.19782848 -105.39728367 65.90875366 -109.0625 66.625 C-111.351875 67.07875 -113.64125 67.5325 -116 68 C-116.33 72.95 -116.66 77.9 -117 83 C-115.90300781 82.33871094 -114.80601562 81.67742187 -113.67578125 80.99609375 C-112.22180143 80.14246689 -110.76734932 79.28964412 -109.3125 78.4375 C-108.2306543 77.78104492 -108.2306543 77.78104492 -107.12695312 77.11132812 C-101.70950721 73.96970424 -101.70950721 73.96970424 -98.1640625 74.12109375 C-96 75 -96 75 -93.0625 76.625 C-89.3438036 78.29461879 -87.91135161 77.95245521 -84 77 C-81.12063936 75.69541414 -81.12063936 75.69541414 -78.375 74.0625 C-75.27956784 72.29801696 -72.20541798 70.55756226 -69 69 C-68.34 70.32 -67.68 71.64 -67 73 C-68.24372189 73.98712878 -69.49527218 74.96439905 -70.75 75.9375 C-71.44609375 76.48277344 -72.1421875 77.02804687 -72.859375 77.58984375 C-74.96092128 78.97425654 -76.54321799 79.56286987 -79 80 C-79 80.66 -79 81.32 -79 82 C-74.82319455 82.07533781 -70.64677089 82.12914847 -66.46948242 82.16479492 C-65.05469863 82.17968738 -63.63995933 82.20000836 -62.2253418 82.22631836 C-44.79579449 82.54186927 -28.6741966 79.02868418 -14.80078125 67.76953125 C-5.59983064 58.72825006 0.14940266 47.45260039 0.5625 34.5 C0.24517707 25.72375441 -1.7686217 17.44285306 -6.3125 9.875 C-6.869375 8.92625 -7.42625 7.9775 -8 7 C-6.76759083 3.3027725 -4.20634615 0 0 0 Z " fill="#1E397B" transform="translate(339,480)"/>
<path d="M0 0 C5.28 0 10.56 0 16 0 C16 9.24 16 18.48 16 28 C26.89 28 37.78 28 49 28 C49 18.76 49 9.52 49 0 C54.28 0 59.56 0 65 0 C65 23.1 65 46.2 65 70 C59.72 70 54.44 70 49 70 C49 60.43 49 50.86 49 41 C38.11 41 27.22 41 16 41 C16 50.57 16 60.14 16 70 C10.72 70 5.44 70 0 70 C0 46.9 0 23.8 0 0 Z " fill="#193364" transform="translate(381,481)"/>
<path d="M0 0 C2.97 0 5.94 0 9 0 C9.32049316 0.5762915 9.64098633 1.15258301 9.97119141 1.74633789 C16.37701153 13.2380665 22.90225697 24.63989287 29.75 35.875 C30.3579541 36.87281494 30.9659082 37.87062988 31.59228516 38.89868164 C33.99530636 43.17483223 33.99530636 43.17483223 37 47 C46.03949534 31.35572113 55.05184124 15.69677011 64 0 C67.3 0 70.6 0 74 0 C74 23.1 74 46.2 74 70 C70.7 70 67.4 70 64 70 C63.67 53.5 63.34 37 63 20 C60.855 23.856875 58.71 27.71375 56.5 31.6875 C51.96193205 39.82467087 47.37243126 47.89048071 42.35546875 55.7421875 C40.86751651 58.03548584 40.86751651 58.03548584 40 61 C37.21484375 61.3046875 37.21484375 61.3046875 34 61 C32.19140625 59.0703125 32.19140625 59.0703125 30.5625 56.125 C30.25175537 55.57996826 29.94101074 55.03493652 29.62084961 54.47338867 C28.86984673 53.15345997 28.12872797 51.82788548 27.39453125 50.49853516 C25.69359699 47.45102793 23.9416484 44.43515529 22.1875 41.41796875 C11.59729394 23.19458788 11.59729394 23.19458788 10 20 C9.67 36.17 9.34 52.34 9 69 C6.03 69 3.06 69 0 69 C0 46.23 0 23.46 0 0 Z " fill="#309ADE" transform="translate(598,481)"/>
<path d="M0 0 C7.09897941 4.34980494 11.16257745 9.93571354 13.25 17.9375 C13.25 21.8975 13.25 25.8575 13.25 29.9375 C0.05 29.9375 -13.15 29.9375 -26.75 29.9375 C-23.91721237 35.93066344 -23.91721237 35.93066344 -18.83984375 39.2421875 C-14.2090608 40.7828966 -9.1881449 41.05459681 -4.6953125 38.99609375 C-3.0449557 37.97967229 -1.39731887 36.9588377 0.25 35.9375 C3.51985325 35.84132785 4.48841719 37.13353191 7.0625 39.25 C9.25 41.9375 9.25 41.9375 9.4375 44 C6.32280502 49.08187075 0.50830645 50.9038987 -4.9765625 52.39453125 C-14.81120965 54.31990583 -23.29922884 53.08262444 -31.75 47.65234375 C-37.37383198 43.30114616 -41.42492971 36.96438792 -42.75 29.9375 C-43.65108617 20.55734067 -41.82886357 13.64040445 -36.0625 6.1875 C-26.85840889 -3.51410955 -12.24715097 -5.59391873 0 0 Z " fill="#112D5F" transform="translate(570.75,499.0625)"/>
<path d="M0 0 C5.96199234 4.22028671 8.73191241 9.76323168 11.0859375 16.4765625 C11.0859375 20.1065625 11.0859375 23.7365625 11.0859375 27.4765625 C-9.7040625 27.9715625 -9.7040625 27.9715625 -30.9140625 28.4765625 C-27.87107133 35.57687524 -25.77358951 38.49858602 -18.9140625 41.4765625 C-12.66660585 42.38079965 -7.5778106 41.00062415 -1.9140625 38.4765625 C-0.9240625 38.0846875 0.0659375 37.6928125 1.0859375 37.2890625 C1.7459375 37.0209375 2.4059375 36.7528125 3.0859375 36.4765625 C5.1484375 38.2265625 5.1484375 38.2265625 7.0859375 40.4765625 C7.2109375 42.4765625 7.2109375 42.4765625 6.0859375 44.4765625 C-0.42224481 49.50561247 -5.72096848 50.83834104 -13.7265625 50.8515625 C-14.49548828 50.87605469 -15.26441406 50.90054688 -16.05664062 50.92578125 C-23.32591644 50.96258771 -29.39518409 48.51339779 -34.6640625 43.4140625 C-40.13504094 37.52994381 -42.09086827 30.31064433 -42.4765625 22.4140625 C-42.1484279 14.24245257 -39.0201424 8.1191043 -33.1015625 2.5390625 C-23.37381906 -5.12741188 -10.88114625 -6.30331773 0 0 Z " fill="#2C9AE0" transform="translate(825.9140625,500.5234375)"/>
<path d="M0 0 C4.7838905 2.92464922 8.66200116 7.11100349 10.4375 12.4375 C10.52294291 13.77278807 10.55524625 15.11193888 10.55102539 16.44995117 C10.55094986 17.25055466 10.55087433 18.05115814 10.55079651 18.87602234 C10.54563522 19.73548965 10.54047394 20.59495697 10.53515625 21.48046875 C10.5337413 22.3640657 10.53232635 23.24766266 10.53086853 24.15803528 C10.52527069 26.98039128 10.51271861 29.80266797 10.5 32.625 C10.49498472 34.53841031 10.49042186 36.45182187 10.48632812 38.36523438 C10.47530197 43.05602014 10.45803883 47.74674663 10.4375 52.4375 C7.4675 52.4375 4.4975 52.4375 1.4375 52.4375 C1.1075 50.7875 0.7775 49.1375 0.4375 47.4375 C-0.490625 48.076875 -1.41875 48.71625 -2.375 49.375 C-9.09019148 53.7201239 -16.84178287 53.09732553 -24.5625 52.4375 C-29.59147146 50.83082287 -31.89406471 48.56548456 -34.5625 44.0625 C-36.03656419 38.71901731 -36.51914663 35.2444992 -33.875 30.25 C-30.82218464 26.53711645 -28.15450472 23.96816824 -23.5625 22.4375 C-21.71639468 22.35510831 -19.86744836 22.33006641 -18.01953125 22.33984375 C-16.94638672 22.34306641 -15.87324219 22.34628906 -14.76757812 22.34960938 C-13.64802734 22.35798828 -12.52847656 22.36636719 -11.375 22.375 C-9.67827148 22.38176758 -9.67827148 22.38176758 -7.94726562 22.38867188 C-5.15229073 22.40046502 -2.3574218 22.4169235 0.4375 22.4375 C0.30625834 20.98895312 0.16662937 19.54116442 0.0234375 18.09375 C-0.05342285 17.28744141 -0.1302832 16.48113281 -0.20947266 15.65039062 C-0.65426569 12.8622827 -1.48937056 11.35115794 -3.5625 9.4375 C-9.67918452 7.39860516 -17.71451956 7.24740131 -23.6875 9.875 C-25.110625 10.6484375 -25.110625 10.6484375 -26.5625 11.4375 C-27.5525 11.7675 -28.5425 12.0975 -29.5625 12.4375 C-31.5425 8.9725 -31.5425 8.9725 -33.5625 5.4375 C-32.35959989 4.63760196 -31.14983705 3.84802176 -29.9375 3.0625 C-28.92816406 2.40121094 -28.92816406 2.40121094 -27.8984375 1.7265625 C-19.91291921 -2.68016164 -8.45899204 -3.81227301 0 0 Z " fill="#2D9BE0" transform="translate(721.5625,498.5625)"/>
<path d="M0 0 C1.9375 0.375 1.9375 0.375 4 1 C4.495 1.99 4.495 1.99 5 3 C1.15057761 9.28361597 -2.67399686 14.82143577 -7.9074707 19.98754883 C-12.9654607 24.66960206 -12.9654607 24.66960206 -15.4375 30.8671875 C-15.11018532 33.47920514 -15.11018532 33.47920514 -14.46875 35.91015625 C-14 38 -14 38 -15.0625 40.9375 C-18.30929495 44.39376559 -21.43566775 45.81228013 -26.125 46.375 C-29 46 -29 46 -30.8125 44.375 C-33.12019463 42.58767118 -33.12019463 42.58767118 -36.8125 43.625 C-37.58078125 43.83125 -38.3490625 44.0375 -39.140625 44.25 C-42.75422106 45.19782848 -46.39728367 45.90875366 -50.0625 46.625 C-52.351875 47.07875 -54.64125 47.5325 -57 48 C-57.33 52.95 -57.66 57.9 -58 63 C-56.90300781 62.33871094 -55.80601562 61.67742188 -54.67578125 60.99609375 C-53.22180143 60.14246689 -51.76734932 59.28964412 -50.3125 58.4375 C-49.2306543 57.78104492 -49.2306543 57.78104492 -48.12695312 57.11132812 C-42.70800981 53.96883588 -42.70800981 53.96883588 -39.16015625 54.125 C-37 55 -37 55 -34.125 56.5625 C-30.50048645 58.22977623 -27.94261266 58.07438892 -24 58 C-23.01 58.66 -22.02 59.32 -21 60 C-21 60.66 -21 61.32 -21 62 C-21.66 62 -22.32 62 -23 62 C-23.309375 62.639375 -23.61875 63.27875 -23.9375 63.9375 C-25 66 -25 66 -26 67 C-24.906875 67.28875 -23.81375 67.5775 -22.6875 67.875 C-19 69 -19 69 -16 71 C-23.78651153 71.51910077 -29.73982531 69.71438964 -37 67 C-39.94560905 65.66601629 -39.94560905 65.66601629 -42.58789062 66.98803711 C-43.60044922 67.4960083 -44.61300781 68.00397949 -45.65625 68.52734375 C-47.31333984 69.34428711 -47.31333984 69.34428711 -49.00390625 70.17773438 C-50.73447266 71.04881836 -50.73447266 71.04881836 -52.5 71.9375 C-54.77865179 73.07682589 -57.05979303 74.21119057 -59.34375 75.33984375 C-60.35630859 75.84894287 -61.36886719 76.35804199 -62.41210938 76.88256836 C-65 78 -65 78 -68 78 C-68 66.78 -68 55.56 -68 44 C-65.07125 43.566875 -62.1425 43.13375 -59.125 42.6875 C-52.85580797 41.73096568 -46.8212006 40.64309664 -40.8125 38.55078125 C-39 38 -39 38 -36 38 C-36.061875 36.948125 -36.12375 35.89625 -36.1875 34.8125 C-35.98895388 30.77539551 -35.49309937 29.11637422 -33 26 C-29.84811381 23.98252113 -27.90632298 23.94415939 -24.25 24.375 C-19.98117808 24.43125095 -18.02542192 23.77665751 -14.9375 20.8125 C-10.08500775 15.29785504 -6.0370429 9.12256921 -2 3 C-1.34 2.01 -0.68 1.02 0 0 Z " fill="#17276D" transform="translate(280,500)"/>
<path d="M0 0 C0 4.62 0 9.24 0 14 C-2.96223958 14.35807292 -5.92447917 14.71614583 -8.88671875 15.07421875 C-12.89989153 16.26759635 -14.38853051 17.73512043 -17 21 C-17.50722152 23.83732319 -17.72254511 26.09373781 -17.70703125 28.92578125 C-17.72215256 29.67337204 -17.73727386 30.42096283 -17.75285339 31.19120789 C-17.79564081 33.56528087 -17.8045588 35.93808031 -17.8125 38.3125 C-17.83565158 39.92776802 -17.86101831 41.54300591 -17.88867188 43.15820312 C-17.95558635 47.10615713 -17.97663072 51.05059113 -18 55 C-22.95 55 -27.9 55 -33 55 C-33 37.18 -33 19.36 -33 1 C-28.38 1 -23.76 1 -19 1 C-19 3.31 -19 5.62 -19 8 C-18.34 8 -17.68 8 -17 8 C-16.61908203 7.07960938 -16.61908203 7.07960938 -16.23046875 6.140625 C-14.82001216 3.68687829 -13.82078122 2.99182096 -11.3125 1.75 C-10.66925781 1.41484375 -10.02601563 1.0796875 -9.36328125 0.734375 C-7 0 -7 0 0 0 Z " fill="#142E60" transform="translate(524,496)"/>
<path d="M0 0 C4.14819316 1.3333478 5.92746913 2.61700336 8.5 6.125 C9.05348638 9.99940468 8.79968563 12.90544012 6.5 16.125 C3.26505395 18.43567575 0.39192023 18.44270777 -3.5 18.125 C-4.62148438 17.50044922 -4.62148438 17.50044922 -5.765625 16.86328125 C-8.65297118 15.76843295 -8.65297118 15.76843295 -11.76953125 17.65234375 C-12.96461847 18.43460398 -14.14516433 19.239401 -15.3125 20.0625 C-15.93342529 20.48490967 -16.55435059 20.90731934 -17.1940918 21.3425293 C-33.6963652 32.73865042 -45.38715061 49.63226171 -50.5 69.125 C-51.08768383 71.83971005 -51.08768383 71.83971005 -50.5 74.125 C-48.62491838 76.3335766 -48.62491838 76.3335766 -46.5 78.125 C-44.9452331 81.23453379 -45.21355563 83.68766761 -45.5 87.125 C-48.57692308 92.66346154 -48.57692308 92.66346154 -51.5 94.125 C-59.89616646 95.29897726 -59.89616646 95.29897726 -63.234375 92.85546875 C-65.69571437 89.88014381 -67.35571524 87.18308822 -67.875 83.375 C-67.36141393 78.92392069 -65.70443094 77.19010786 -62.5 74.125 C-59.1875 72.75 -59.1875 72.75 -56.5 72.125 C-56.4071875 70.7946875 -56.4071875 70.7946875 -56.3125 69.4375 C-54.13981939 54.64541419 -45.28371736 40.10185362 -35.5 29.125 C-34.82324219 28.35414063 -34.14648438 27.58328125 -33.44921875 26.7890625 C-27.01973918 19.90117396 -18.11333645 12.40677819 -8.5 11.125 C-8.6546875 9.7946875 -8.6546875 9.7946875 -8.8125 8.4375 C-8.5 5.125 -8.5 5.125 -6.4375 2.1875 C-3.5 0.125 -3.5 0.125 0 0 Z " fill="#2F5493" transform="translate(350.5,454.875)"/>
<path d="M0 0 C3.3 0 6.6 0 10 0 C10 4.29 10 8.58 10 13 C15.28 13 20.56 13 26 13 C26 15.31 26 17.62 26 20 C20.72 20 15.44 20 10 20 C10.07405864 24.62738836 10.15693041 29.2528631 10.26245117 33.87939453 C10.29566372 35.45253522 10.32370717 37.02579401 10.34643555 38.59912109 C10.38005028 40.86346672 10.43236624 43.12673365 10.48828125 45.390625 C10.49467117 46.09181458 10.5010611 46.79300415 10.50764465 47.51544189 C10.59856319 50.54871195 10.86975207 52.75197914 12.28979492 55.45605469 C14.69272081 57.62537708 16.86818055 57.36265521 19.9921875 57.20703125 C22.37341076 56.96149656 24.67721592 56.58069602 27 56 C28.4606285 58.64738916 29 59.89448334 29 63 C23.18316259 66.98868851 16.84681793 66.77527582 10 66 C4.85960341 63.69568429 3.08181967 61.13720819 1 56 C0.61926505 53.16964433 0.6486652 50.39062833 0.70703125 47.5390625 C0.71127609 46.74849457 0.71552094 45.95792664 0.71989441 45.1434021 C0.73658699 42.6369106 0.77422017 40.13124539 0.8125 37.625 C0.82755908 35.91798042 0.84124534 34.21094815 0.85351562 32.50390625 C0.88645944 28.33562275 0.93817507 24.16795111 1 20 C-2.3 20 -5.6 20 -9 20 C-9 17.69 -9 15.38 -9 13 C-6.03 13 -3.06 13 0 13 C0 8.71 0 4.42 0 0 Z " fill="#2B9BE3" transform="translate(750,485)"/>
<path d="M0 0 C3.49406769 1.66762322 4.82670681 2.74006022 7 6 C7.48219153 9.04453491 7.46284898 11.95291087 7 15 C5.12379387 17.50160818 3.76108697 18.61945652 1 20 C-6.28391608 20.23496503 -6.28391608 20.23496503 -9 19.34375 C-11.81397763 18.8600976 -12.8115267 19.76154445 -15.125 21.375 C-24.76219214 27.82276539 -24.76219214 27.82276539 -31 37 C-30.67 37.66 -30.34 38.32 -30 39 C-29.55591309 42.9079648 -29.86295156 44.74548146 -31.75 48.25 C-35.12191228 52.37122612 -36.63710503 52.84856723 -41.9375 53.4375 C-45.47528493 53.3648962 -45.97889945 53.01706002 -48.9375 50.625 C-51.77983306 47.0074852 -52.39332514 44.76512585 -52.359375 40.10546875 C-51.72418186 36.38406547 -49.66020984 34.59687151 -47 32 C-45 31 -45 31 -43.0390625 31.32421875 C-40.01363967 31.77950083 -37.98738102 31.75882673 -35 31 C-31.62155473 28.23660502 -28.78070466 25.21745439 -25.84375 22.00390625 C-22.61254352 18.47924905 -19.24787946 16.20260416 -15 14 C-14.34 14 -13.68 14 -13 14 C-13.1546875 12.453125 -13.1546875 12.453125 -13.3125 10.875 C-12.90324992 5.80029899 -11.53727317 4.53727317 -8 1 C-5.17998673 -0.41000664 -3.12992745 -0.24548451 0 0 Z " fill="#2EA6DE" transform="translate(334,437)"/>
<path d="M0 0 C2.89728868 1.2328888 4.39683427 2.2245012 6.3125 4.6875 C7.36913204 8.24162594 7.88372555 11.39605675 7 15 C5.10767658 17.80300406 3.02572221 19.50370307 0 21 C-3.71713698 21.64239112 -7.31852495 21.66057949 -10.859375 20.26953125 C-14.32630427 19.83300183 -16.55782469 21.59826787 -19.5625 23.25 C-24.09325116 25.68995608 -28.1738809 27.46949153 -33.25 28.5625 C-35.86015067 29.10990989 -35.86015067 29.10990989 -38 30 C-39.55514887 32.91382515 -39.55514887 32.91382515 -40 36 C-42.42796502 38.69773891 -43.80209734 38.97481239 -47.4375 39.4375 C-51.55085087 38.93235165 -53.10461516 37.89538484 -56 35 C-57.6665436 31.66691281 -57.41627795 28.32452074 -56.3125 24.8125 C-54.46552692 22.26191813 -52.90900097 21.22824485 -50 20 C-45.76934307 20.21882708 -43.54170582 20.63886279 -40 23 C-40 23.66 -40 24.32 -40 25 C-35.2961848 23.28744592 -30.6104992 21.53693256 -25.94042969 19.734375 C-24.38117168 19.14425823 -22.80595946 18.59638066 -21.2265625 18.0625 C-18.83114451 17.23798972 -18.83114451 17.23798972 -16 15 C-15.18620171 12.47248891 -14.81055858 10.04789619 -14.4609375 7.41796875 C-14 5 -14 5 -11.9375 1.875 C-7.88826801 -0.70961616 -4.67918086 -0.78127884 0 0 Z " fill="#2C3679" transform="translate(247,486)"/>
<path d="M0 0 C-2.63736003 2.17194355 -5.27112111 4.17893993 -8.125 6.0625 C-10.89815009 7.73169494 -10.89815009 7.73169494 -12.21484375 9.48046875 C-14.90506837 11.77039737 -18.09401301 12.3472819 -21.4375 13.25 C-36.8329689 17.77174611 -49.35118461 26.50192296 -57.66015625 40.40234375 C-59.3080642 43.59726732 -60.29657695 46.48288476 -61 50 C-64.3 50 -67.6 50 -71 50 C-70.47098758 38.36172686 -62.86539875 28.07174409 -55 20 C-40.12712974 6.64433346 -20.08680205 -1.36955469 0 0 Z " fill="#2A6CAC" transform="translate(273,451)"/>
<path d="M0 0 C4.62 0 9.24 0 14 0 C14 17.82 14 35.64 14 54 C9.38 54 4.76 54 0 54 C0 36.18 0 18.36 0 0 Z " fill="#112C5E" transform="translate(462,497)"/>
<path d="M0 0 C5.37492589 6.80312048 7.81692548 14.73790259 10 23 C10.1959375 23.6703125 10.391875 24.340625 10.59375 25.03125 C13.12468333 37.29654231 9.59663895 50.12820005 4 61 C1.06350579 65.38860673 -2.21728088 69.32044595 -6 73 C-6.928125 72.67 -7.85625 72.34 -8.8125 72 C-11.92029291 70.85032996 -11.92029291 70.85032996 -15 71 C-13.35 69.35 -11.7 67.7 -10 66 C-10.66 65.34 -11.32 64.68 -12 64 C-10.6696875 62.63875 -10.6696875 62.63875 -9.3125 61.25 C-1.4711149 52.18223713 0.73538956 40.62249858 0.18798828 29.00878906 C-0.44480187 22.2469743 -2.83004881 15.67504066 -6.3125 9.875 C-7.1478125 8.451875 -7.1478125 8.451875 -8 7 C-6.76759083 3.3027725 -4.20634615 0 0 0 Z " fill="#2692D0" transform="translate(339,480)"/>
<path d="M0 0 C1.9375 0.375 1.9375 0.375 4 1 C4.495 1.99 4.495 1.99 5 3 C1.15057761 9.28361597 -2.67399686 14.82143577 -7.9074707 19.98754883 C-12.9654607 24.66960206 -12.9654607 24.66960206 -15.4375 30.8671875 C-15.11018532 33.47920514 -15.11018532 33.47920514 -14.46875 35.91015625 C-14 38 -14 38 -15.0625 40.9375 C-18.30929495 44.39376559 -21.43566775 45.81228013 -26.125 46.375 C-29 46 -29 46 -30.8125 44.375 C-33.11168035 42.59201048 -33.11168035 42.59201048 -36.75 43.625 C-37.51957031 43.82867188 -38.28914063 44.03234375 -39.08203125 44.2421875 C-42.84276718 45.21887126 -46.62649443 45.99749221 -50.4375 46.75 C-51.50339355 46.97743896 -51.50339355 46.97743896 -52.59082031 47.20947266 C-54.37868194 47.56162722 -56.18984269 47.79073326 -58 48 C-58.66 47.34 -59.32 46.68 -60 46 C-60 45.01 -60 44.02 -60 43 C-57.12543719 42.35216876 -54.25038241 41.70667482 -51.375 41.0625 C-50.16263672 40.78889648 -50.16263672 40.78889648 -48.92578125 40.50976562 C-44.63101819 39.54955437 -40.35222151 38.66903081 -36 38 C-36.061875 36.948125 -36.12375 35.89625 -36.1875 34.8125 C-35.98895388 30.77539551 -35.49309937 29.11637422 -33 26 C-29.84811381 23.98252113 -27.90632298 23.94415939 -24.25 24.375 C-19.98117808 24.43125095 -18.02542192 23.77665751 -14.9375 20.8125 C-10.08500775 15.29785504 -6.0370429 9.12256921 -2 3 C-1.34 2.01 -0.68 1.02 0 0 Z " fill="#213076" transform="translate(280,500)"/>
<path d="M0 0 C3.97753585 2.22366178 6.29929454 4.56711293 8.8125 8.375 C9.3075 11.345 9.3075 11.345 9.8125 14.375 C-1.4075 14.375 -12.6275 14.375 -24.1875 14.375 C-23.19573496 7.43264474 -22.90066237 5.98342542 -18.1875 1.375 C-12.24107016 -2.58928656 -6.39644552 -2.87900278 0 0 Z " fill="#F5FAFB" transform="translate(818.1875,506.625)"/>
<path d="M0 0 C1.32 0.66 2.64 1.32 4 2 C2.7513175 6.1215911 0.03173849 7.43177259 -3.52148438 9.40429688 C-4.23626953 9.78650391 -4.95105469 10.16871094 -5.6875 10.5625 C-6.38294922 10.94857422 -7.07839844 11.33464844 -7.79492188 11.73242188 C-19.23031569 18 -19.23031569 18 -24 18 C-24.2475 18.928125 -24.495 19.85625 -24.75 20.8125 C-26.10679678 24.27233179 -26.69445191 25.39189552 -30 27 C-33.4375 27.5625 -33.4375 27.5625 -37 27 C-40.69374497 23.77779694 -41.77969084 22.25576218 -42.625 17.4375 C-41.82227491 13.02251199 -40.65829624 11.56859098 -37 9 C-33.4375 8.5 -33.4375 8.5 -30 9 C-29.319375 9.515625 -28.63875 10.03125 -27.9375 10.5625 C-26.0507521 12.28584583 -26.0507521 12.28584583 -23.38671875 11.83203125 C-19.19887914 10.80318484 -15.68949776 9.09948029 -11.875 7.125 C-11.17246094 6.77308594 -10.46992188 6.42117188 -9.74609375 6.05859375 C-6.25959619 4.28568667 -3.03465691 2.50005414 0 0 Z " fill="#293376" transform="translate(231,520)"/>
<path d="M0 0 C0.84433594 0.00322266 1.68867187 0.00644531 2.55859375 0.00976562 C3.86763672 0.02233398 3.86763672 0.02233398 5.203125 0.03515625 C6.09128906 0.03966797 6.97945312 0.04417969 7.89453125 0.04882812 C10.08079829 0.06058225 12.26692679 0.07701376 14.453125 0.09765625 C14.5090177 1.53731674 14.54891119 2.97760443 14.58203125 4.41796875 C14.60595947 5.21992676 14.6298877 6.02188477 14.65454102 6.84814453 C14.453125 9.09765625 14.453125 9.09765625 12.390625 11.97265625 C6.36200048 16.33378888 0.82073967 18.14623062 -6.546875 17.09765625 C-11.08741554 15.01657517 -11.08741554 15.01657517 -12.546875 12.09765625 C-13.12266818 5.87908986 -13.12266818 5.87908986 -10.796875 2.72265625 C-7.31621102 0.20884337 -4.2203096 -0.02851561 0 0 Z " fill="#F3F9FB" transform="translate(708.546875,526.90234375)"/>
<path d="M0 0 C2.89728868 1.2328888 4.39683427 2.2245012 6.3125 4.6875 C7.36913204 8.24162594 7.88372555 11.39605675 7 15 C4.61865054 18.52737388 1.83270783 20.63345843 -2.36328125 21.47265625 C-8.13611144 21.6899641 -8.13611144 21.6899641 -10.765625 19.58984375 C-12 18 -12 18 -12 16 C-12.99 15.67 -13.98 15.34 -15 15 C-15.42004622 8.90932974 -15.0566405 5.89183119 -11 1 C-7.5507568 -0.7246216 -3.77868569 -0.36610104 0 0 Z " fill="#3268A4" transform="translate(247,486)"/>
<path d="M0 0 C4.14819316 1.3333478 5.92746913 2.61700336 8.5 6.125 C9.05348638 9.99940468 8.79968563 12.90544012 6.5 16.125 C3.26505395 18.43567575 0.39192023 18.44270777 -3.5 18.125 C-4.24121094 17.7021875 -4.98242188 17.279375 -5.74609375 16.84375 C-8.6945459 15.75303117 -8.6945459 15.75303117 -11.9453125 17.828125 C-13.18444181 18.65863351 -14.41080383 19.50844736 -15.625 20.375 C-16.55505859 21.00728516 -16.55505859 21.00728516 -17.50390625 21.65234375 C-19.1796901 22.79475984 -20.84058984 23.95892799 -22.5 25.125 C-23.49 25.785 -24.48 26.445 -25.5 27.125 C-26.49 26.135 -27.48 25.145 -28.5 24.125 C-27.00950396 19.84583394 -23.90748998 18.13811561 -20.1875 15.9375 C-19.61837891 15.58236328 -19.04925781 15.22722656 -18.46289062 14.86132812 C-15.17458264 12.8717319 -12.32110999 11.60532715 -8.5 11.125 C-8.603125 10.238125 -8.70625 9.35125 -8.8125 8.4375 C-8.5 5.125 -8.5 5.125 -6.4375 2.1875 C-3.5 0.125 -3.5 0.125 0 0 Z " fill="#1CC9F2" transform="translate(350.5,454.875)"/>
<path d="M0 0 C3.49406769 1.66762322 4.82670681 2.74006022 7 6 C7.48219153 9.04453491 7.46284898 11.95291087 7 15 C5.12379387 17.50160818 3.76108697 18.61945652 1 20 C-3.30870608 20.13899052 -6.83988676 20.07854788 -11 19 C-11.99 19.33 -12.98 19.66 -14 20 C-14.12375 19.360625 -14.2475 18.72125 -14.375 18.0625 C-14.58125 17.381875 -14.7875 16.70125 -15 16 C-15.66 15.67 -16.32 15.34 -17 15 C-15.68 14.67 -14.36 14.34 -13 14 C-13.103125 12.96875 -13.20625 11.9375 -13.3125 10.875 C-12.90324992 5.80029899 -11.53727317 4.53727317 -8 1 C-5.17998673 -0.41000664 -3.12992745 -0.24548451 0 0 Z " fill="#16D5F4" transform="translate(334,437)"/>
<path d="M0 0 C-0.33 1.65 -0.66 3.3 -1 5 C-2.38058594 5.22042969 -2.38058594 5.22042969 -3.7890625 5.4453125 C-21.34433986 8.55592173 -36.27189569 15.8138454 -48.96484375 28.53125 C-51.47812358 30.34505655 -52.96802299 30.2952882 -56 30 C-56.33 29.01 -56.66 28.02 -57 27 C-41.11356241 12.46858209 -22.53379398 -1.1266897 0 0 Z " fill="#37BBE8" transform="translate(313,446)"/>
<path d="M0 0 C3.90719475 1.98911733 6.83161093 4.14508609 9 8 C9 9.32 9 10.64 9 12 C0.09 12 -8.82 12 -18 12 C-16.96781909 5.80691451 -16.69742407 4.68522869 -12.1640625 1.140625 C-8.1791166 -0.9597436 -4.34952024 -0.84693628 0 0 Z " fill="#F1F4F7" transform="translate(561,508)"/>
<path d="M0 0 C3.61986532 0.8116877 5.12897034 2.4703572 7.16015625 5.484375 C7.78515625 8.484375 7.78515625 8.484375 7.16015625 11.484375 C4.57448155 15.01029504 2.8759977 16.27984887 -1.33984375 17.484375 C-5.28247895 17.484375 -6.82820785 16.97973046 -9.83984375 14.484375 C-11.90512911 11.53396734 -12.44654125 9.03788895 -11.83984375 5.484375 C-8.54014439 0.69448883 -5.57472698 -0.33504202 0 0 Z " fill="#183264" transform="translate(470.83984375,472.515625)"/>
<path d="M0 0 C0.99 1.32 1.98 2.64 3 4 C0.1793125 7.85093861 -2.62006327 11.62862566 -5.875 15.125 C-13.00302117 23.34098229 -17.80313682 33.69432264 -21 44 C-23.97 44.495 -23.97 44.495 -27 45 C-23.67362959 27.29759196 -12.8713955 12.1473795 0 0 Z " fill="#2885C2" transform="translate(322,477)"/>
<path d="M0 0 C0.99 0.33 1.98 0.66 3 1 C1.02 1.99 1.02 1.99 -1 3 C-1 3.99 -1 4.98 -1 6 C-0.01 6 0.98 6 2 6 C3.6875 7.5 3.6875 7.5 5 9 C-0.96540017 14.93030958 -7.37348492 18.52993564 -15 22 C-14.67 19.36 -14.34 16.72 -14 14 C-15.5778125 14.4640625 -15.5778125 14.4640625 -17.1875 14.9375 C-23.60683761 16.72649573 -23.60683761 16.72649573 -26 17 C-26.66 16.34 -27.32 15.68 -28 15 C-27.46632813 14.84144531 -26.93265625 14.68289063 -26.3828125 14.51953125 C-17.05882136 11.59973472 -9.31454442 7.68122002 -1.91015625 1.2578125 C-1.27980469 0.84273437 -0.64945312 0.42765625 0 0 Z " fill="#1C579E" transform="translate(327,545)"/>
<path d="M0 0 C1.9375 0.375 1.9375 0.375 4 1 C4.495 1.99 4.495 1.99 5 3 C0.30827426 10.65855232 -4.70359455 17.21578056 -11.04980469 23.5456543 C-14.01670921 26.58217065 -15.69093383 28.69684792 -16 33 C-17.5 31.625 -17.5 31.625 -19 30 C-19 29.34 -19 28.68 -19 28 C-22.3 27.01 -25.6 26.02 -29 25 C-29 24.67 -29 24.34 -29 24 C-28.05640625 24.13921875 -28.05640625 24.13921875 -27.09375 24.28125 C-23.24130521 24.60615498 -20.22763947 24.76361427 -16.87109375 22.67578125 C-10.95438207 16.97422272 -6.50367165 9.83025721 -2 3 C-1.34 2.01 -0.68 1.02 0 0 Z " fill="#234488" transform="translate(280,500)"/>
<path d="M0 0 C3.63 0 7.26 0 11 0 C10.34 0.66 9.68 1.32 9 2 C9.33 2.33 9.66 2.66 10 3 C10.17883149 5.26617608 10.26802736 7.53971385 10.3125 9.8125 C10.34988281 11.05644531 10.38726562 12.30039062 10.42578125 13.58203125 C9.93056048 17.55742731 9.02529583 18.51844759 6 21 C5.67 21.66 5.34 22.32 5 23 C4.01 23 3.02 23 2 23 C1.67 26.3 1.34 29.6 1 33 C1.66 33.33 2.32 33.66 3 34 C2.01 34 1.02 34 0 34 C0 22.78 0 11.56 0 0 Z " fill="#222B6E" transform="translate(212,544)"/>
<path d="M0 0 C3.30103706 1.28820958 4.57380379 3.12743881 6.5625 6 C7.8825 5.01 9.2025 4.02 10.5625 3 C10.88670072 7.64687703 10.53057592 10.33937303 7.5625 14 C3.49737211 16.61974909 0.38712448 17.54825278 -4.4375 17 C-5.0975 16.34 -5.7575 15.68 -6.4375 15 C-6.12846017 13.66082739 -5.78726758 12.32911682 -5.4375 11 C-5.45939302 9.64536936 -5.50289651 8.29099581 -5.5625 6.9375 C-5.4375 3 -5.4375 3 -4.25 0.9375 C-2.4375 0 -2.4375 0 0 0 Z " fill="#25387C" transform="translate(255.4375,529)"/>
<path d="M0 0 C0.66 0.99 1.32 1.98 2 3 C2.969375 3.268125 3.93875 3.53625 4.9375 3.8125 C8 5 8 5 9.75 8 C10.36875 9.485 10.36875 9.485 11 11 C11.66 11.66 12.32 12.32 13 13 C10.16311615 15.75091768 8.43295171 16.9226872 4.5 17.625 C0.69404192 16.94536463 -0.86251087 15.94319669 -3.1171875 12.78515625 C-4.64995791 9.68570458 -4.55944575 7.35667452 -4 4 C-2 1.5625 -2 1.5625 0 0 Z " fill="#1F2D74" transform="translate(193,530)"/>
<path d="M0 0 C0.33 1.65 0.66 3.3 1 5 C0.31035156 5.4125 -0.37929688 5.825 -1.08984375 6.25 C-6.96991971 9.86354462 -12.04896035 13.60608765 -16.9296875 18.49609375 C-19.46641713 20.33881244 -20.9333022 20.30453271 -24 20 C-24.33 19.01 -24.66 18.02 -25 17 C-6.414791 0 -6.414791 0 0 0 Z " fill="#349EDC" transform="translate(281,456)"/>
<path d="M0 0 C0.66 0.66 1.32 1.32 2 2 C1.34 2.66 0.68 3.32 0 4 C0.33 4.66 0.66 5.32 1 6 C-0.6 11.6 -0.6 11.6 -2 13 C-4.375 13.375 -4.375 13.375 -7 13 C-8.8125 10.5 -8.8125 10.5 -10 8 C-10.99 8.33 -11.98 8.66 -13 9 C-13.33 9.99 -13.66 10.98 -14 12 C-14.3095723 5.18940937 -14.3095723 5.18940937 -12 2 C-7.89619502 -1.40029555 -5.07790358 -1.24552352 0 0 Z " fill="#2E3E7C" transform="translate(204,507)"/>
<path d="M0 0 C4.19769372 0.24692316 6.52655584 0.6474352 9.9375 3.1875 C12.38163552 6.52041207 12.60195738 7.95828617 12 12 C11.13676251 14.58971247 10.46898968 15.66500737 8.25 17.25 C5.42246362 18.19251213 2.96006696 18.1345485 0 18 C0 17.34 0 16.68 0 16 C2.97 15.01 5.94 14.02 9 13 C8.67 12.67 8.34 12.34 8 12 C7.67 12.66 7.34 13.32 7 14 C1.25 13.25 1.25 13.25 -1 11 C-0.625 8.375 -0.625 8.375 0 6 C1.32 5.67 2.64 5.34 4 5 C3.24849977 1.72226496 3.24849977 1.72226496 0 0 Z " fill="#22D0F3" transform="translate(347,455)"/>
<path d="M0 0 C0.66 0.2475 1.32 0.495 2 0.75 C0.94247179 4.00891347 -0.09565822 4.80855883 -3.08203125 6.63671875 C-4.31941964 7.2494576 -5.5632232 7.84937892 -6.8125 8.4375 C-7.42931641 8.74494141 -8.04613281 9.05238281 -8.68164062 9.36914062 C-12.08879456 11.02383706 -15.24613584 12.21373369 -19 12.75 C-19.12375 12.110625 -19.2475 11.47125 -19.375 10.8125 C-19.58125 10.131875 -19.7875 9.45125 -20 8.75 C-20.66 8.42 -21.32 8.09 -22 7.75 C-21.29875 7.50765625 -20.5975 7.2653125 -19.875 7.015625 C-15.28994937 5.39590603 -10.89217782 3.78363033 -6.625 1.4375 C-3 -0.25 -3 -0.25 0 0 Z " fill="#2C5A95" transform="translate(234,501.25)"/>
<path d="M0 0 C0.66 0.33 1.32 0.66 2 1 C1.484375 1.37125 0.96875 1.7425 0.4375 2.125 C-1.36319983 4.03173152 -1.36319983 4.03173152 -0.6875 7.1875 C-0.460625 8.115625 -0.23375 9.04375 0 10 C3.3 10.66 6.6 11.32 10 12 C9.01 12.495 9.01 12.495 8 13 C7.34786708 15.02463255 7.34786708 15.02463255 7 17 C-0.24101736 17.61364554 -0.24101736 17.61364554 -3.9375 14.625 C-7.45504103 10.1481296 -7.0897868 7.56678145 -7 2 C-5.68 2 -4.36 2 -3 2 C-2.01 1.34 -1.02 0.68 0 0 Z " fill="#209BD8" transform="translate(289,473)"/>
<path d="M0 0 C1.32 0.66 2.64 1.32 4 2 C2.51321042 6.42045493 -0.84164853 8.12344614 -4.6875 10.3125 C-5.28755859 10.68439453 -5.88761719 11.05628906 -6.50585938 11.43945312 C-9.89854038 13.39634861 -11.95158162 14.00179687 -15.89453125 13.85546875 C-16.91933594 13.57316406 -17.94414062 13.29085937 -19 13 C-19.33 12.34 -19.66 11.68 -20 11 C-18.89140625 10.45730469 -17.7828125 9.91460938 -16.640625 9.35546875 C-15.17697731 8.63302726 -13.7134415 7.91035908 -12.25 7.1875 C-11.52039063 6.83107422 -10.79078125 6.47464844 -10.0390625 6.10742188 C-6.44089782 4.32469483 -3.10367291 2.58911661 0 0 Z " fill="#304284" transform="translate(231,520)"/>
<path d="M0 0 C0.33 1.32 0.66 2.64 1 4 C-1.09673203 5.84249206 -3.20153849 7.67393977 -5.3125 9.5 C-6.20485352 10.28697266 -6.20485352 10.28697266 -7.11523438 11.08984375 C-11.66015625 15 -11.66015625 15 -15 15 C-16.33981486 14.6937566 -17.67511887 14.36548445 -19 14 C-17.27705085 12.22273722 -15.54712904 10.45330337 -13.8125 8.6875 C-13.32974609 8.18798828 -12.84699219 7.68847656 -12.34960938 7.17382812 C-5.27079884 0 -5.27079884 0 0 0 Z " fill="#1FBEE3" transform="translate(319,453)"/>
<path d="M0 0 C0.66 0 1.32 0 2 0 C2 1.65 2 3.3 2 5 C3.41633336 5.16947579 4.83308533 5.33545507 6.25 5.5 C7.03890625 5.5928125 7.8278125 5.685625 8.640625 5.78125 C12.68624088 6.15634021 14.54141095 6.30572603 18 4 C17.67902885 6.96898311 17.47813119 8.55087902 15.26171875 10.6328125 C11.35528291 12.99421586 7.40407575 12.88081515 3 12 C0.28941497 10.23222716 -0.38138655 8.95815562 -2 6 C-1.81395349 1.81395349 -1.81395349 1.81395349 0 0 Z " fill="#2B4B8B" transform="translate(286,537)"/>
<path d="M0 0 C2.9375 0.875 2.9375 0.875 4.9375 3.875 C4.6133631 7.19740324 4.32973697 8.48276303 1.9375 10.875 C-1.0625 11.125 -1.0625 11.125 -4.0625 10.875 C-6.0625 8.875 -6.0625 8.875 -6.375 5.9375 C-6.0625 2.875 -6.0625 2.875 -4.9375 0.9375 C-3.0625 -0.125 -3.0625 -0.125 0 0 Z " fill="#EEF0F5" transform="translate(295.0625,533.125)"/>
<path d="M0 0 C3.69064293 1.71657811 6.23952781 4.03504838 9 7 C8.67 7.99 8.34 8.98 8 10 C7.01 10.33 6.02 10.66 5 11 C3.68 9.02 2.36 7.04 1 5 C-0.65 5.33 -2.3 5.66 -4 6 C-4.66 7.98 -5.32 9.96 -6 12 C-6.33 12 -6.66 12 -7 12 C-7 10.35 -7 8.7 -7 7 C-7.99 7.33 -8.98 7.66 -10 8 C-10.75 6.25 -10.75 6.25 -11 4 C-8.01670403 -0.47494395 -5.13325261 -0.63039944 0 0 Z " fill="#23367D" transform="translate(256,525)"/>
<path d="M0 0 C0.33 1.65 0.66 3.3 1 5 C0.01 5 -0.98 5 -2 5 C-1.34 5.33 -0.68 5.66 0 6 C0 7.65 0 9.3 0 11 C-3.465 12.485 -3.465 12.485 -7 14 C-6.67 11.36 -6.34 8.72 -6 6 C-7.5778125 6.4640625 -7.5778125 6.4640625 -9.1875 6.9375 C-15.60683761 8.72649573 -15.60683761 8.72649573 -18 9 C-18.66 8.34 -19.32 7.68 -20 7 C-19.443125 6.82984375 -18.88625 6.6596875 -18.3125 6.484375 C-13.51814608 4.96184369 -9.13752474 3.19283766 -4.7265625 0.76953125 C-3 0 -3 0 0 0 Z " fill="#204B92" transform="translate(319,553)"/>
<path d="M0 0 C3.625 0.375 3.625 0.375 7 1 C8.32561852 7.38707103 8.32561852 7.38707103 6.9375 10 C3.99948754 11.51639353 2.09843192 10.92293717 -1 10 C-3 7 -3 7 -2.75 4.4375 C-2 2 -2 2 0 0 Z " fill="#EBF7FC" transform="translate(290,474)"/>
<path d="M0 0 C2.4375 0.8125 2.4375 0.8125 4.4375 2.8125 C4.6875 5.8125 4.6875 5.8125 4.4375 8.8125 C2.4375 10.8125 2.4375 10.8125 -0.5625 11.0625 C-3.5625 10.8125 -3.5625 10.8125 -5.5625 8.8125 C-5.89911952 5.6482765 -6.06193411 3.62736618 -4.375 0.875 C-2.5625 -0.1875 -2.5625 -0.1875 0 0 Z " fill="#F4F5F9" transform="translate(255.5625,529.1875)"/>
<path d="M0 0 C1.9375 0.375 1.9375 0.375 4 1 C4.33 1.66 4.66 2.32 5 3 C1.04 8.94 1.04 8.94 -3 15 C-4.32 14.34 -5.64 13.68 -7 13 C-6.67 13.99 -6.34 14.98 -6 16 C-6.99 16.33 -7.98 16.66 -9 17 C-9.33 16.01 -9.66 15.02 -10 14 C-8.671875 11.9140625 -8.671875 11.9140625 -6.75 9.625 C-4.21683214 6.52553514 -1.93167451 3.52246528 0 0 Z " fill="#2C7AB7" transform="translate(280,500)"/>
<path d="M0 0 C2.4375 0.75 2.4375 0.75 4.4375 2.75 C4.80546448 5.62012296 4.81259409 7.15774618 3.25 9.625 C1.4375 10.75 1.4375 10.75 -1.125 10.5625 C-3.5625 9.75 -3.5625 9.75 -5.5625 7.75 C-5.875 4.75 -5.875 4.75 -5.5625 1.75 C-2.5625 -0.25 -2.5625 -0.25 0 0 Z " fill="#EFF5F9" transform="translate(243.5625,491.25)"/>
<path d="M0 0 C1.32 0 2.64 0 4 0 C4.6147541 7.99180328 4.6147541 7.99180328 2.4375 11.5625 C-0.82152381 13.4844884 -3.28489886 13.28577701 -7 13 C-7.33 12.01 -7.66 11.02 -8 10 C-7.05125 9.649375 -6.1025 9.29875 -5.125 8.9375 C-1.65663938 7.2285659 -1.65663938 7.2285659 -0.625 3.3125 C-0.41875 2.219375 -0.2125 1.12625 0 0 Z " fill="#19CDF2" transform="translate(337,443)"/>
<path d="M0 0 C1.90401138 1.90401138 2.93520439 3.33425686 3.19921875 6.046875 C3.1886578 8.03233273 3.09915043 10.0169914 3 12 C1.02 12.99 1.02 12.99 -1 14 C-1 13.34 -1 12.68 -1 12 C-2.65 12.33 -4.3 12.66 -6 13 C-5.34 12.01 -4.68 11.02 -4 10 C-3.62430144 6.24301443 -3.8357765 5.24633524 -6 2 C-4.02 1.34 -2.04 0.68 0 0 Z " fill="#2A67A5" transform="translate(251,489)"/>
<path d="M0 0 C3.29714793 0.32971479 4.6226839 0.6226839 7 3 C7.3125 5.5 7.3125 5.5 7 8 C4 10 4 10 1.4375 9.75 C-1 9 -1 9 -3 7 C-2.67028521 3.70285207 -2.3773161 2.3773161 0 0 Z " fill="#EBFBFD" transform="translate(329,442)"/>
<path d="M0 0 C-0.33 1.65 -0.66 3.3 -1 5 C-6.28 5.66 -11.56 6.32 -17 7 C-14 2 -14 2 -11.875 0.6875 C-7.89438965 -0.26438508 -4.07210862 -0.15969053 0 0 Z " fill="#1CC0EE" transform="translate(313,446)"/>
<path d="M0 0 C0.99 1.32 1.98 2.64 3 4 C2.09066991 5.27609323 1.17217147 6.54565553 0.25 7.8125 C-0.26046875 8.52019531 -0.7709375 9.22789062 -1.296875 9.95703125 C-3.02482358 12.02977691 -4.78526476 13.47375854 -7 15 C-7.33 14.01 -7.66 13.02 -8 12 C-8.66 11.34 -9.32 10.68 -10 10 C-6.7 6.7 -3.4 3.4 0 0 Z " fill="#30A5D9" transform="translate(322,477)"/>
<path d="M0 0 C0.33 0 0.66 0 1 0 C1 1.98 1 3.96 1 6 C2.32 6 3.64 6 5 6 C5 6.66 5 7.32 5 8 C6.98 8 8.96 8 11 8 C10.34 9.32 9.68 10.64 9 12 C10.65 12 12.3 12 14 12 C14 12.33 14 12.66 14 13 C9.72254046 13.07129099 6.13616082 13.07233799 2 12 C1.01 12.33 0.02 12.66 -1 13 C-1.12375 12.360625 -1.2475 11.72125 -1.375 11.0625 C-1.58125 10.381875 -1.7875 9.70125 -2 9 C-2.66 8.67 -3.32 8.34 -4 8 C-2.68 7.67 -1.36 7.34 0 7 C0 4.69 0 2.38 0 0 Z " fill="#2BD1EF" transform="translate(321,444)"/>
<path d="M0 0 C0.33 0 0.66 0 1 0 C1.0154612 0.87323662 1.0154612 0.87323662 1.03123474 1.76411438 C1.13928566 7.81478134 1.25388492 13.86529895 1.37231445 19.91577148 C1.4156678 22.17485433 1.45734258 24.43397003 1.49731445 26.69311523 C1.55500713 29.93743804 1.61870469 33.1815954 1.68359375 36.42578125 C1.70030624 37.43836502 1.71701874 38.45094879 1.73423767 39.49421692 C1.75418289 40.43496567 1.77412811 41.37571442 1.79467773 42.3449707 C1.81022202 43.17325882 1.8257663 44.00154694 1.84178162 44.85493469 C1.92540723 47.18553247 1.92540723 47.18553247 3 50 C2.54451823 52.73812607 1.74685247 55.3201176 1 58 C0.67 58 0.34 58 0 58 C0 38.86 0 19.72 0 0 Z " fill="#041E51" transform="translate(382,482)"/>
<path d="M0 0 C0.33 1.65 0.66 3.3 1 5 C-0.38481328 5.87191947 -1.78345246 6.72190384 -3.1875 7.5625 C-3.96480469 8.03816406 -4.74210937 8.51382812 -5.54296875 9.00390625 C-8.48360967 10.19605797 -10.00446363 9.88855164 -13 9 C-11.60724746 5.6227555 -10.17726069 4.12929695 -7.0625 2.25 C-6.37285156 1.82203125 -5.68320312 1.3940625 -4.97265625 0.953125 C-3 0 -3 0 0 0 Z " fill="#28A5E1" transform="translate(281,456)"/>
<path d="M0 0 C4.55555556 0.55555556 4.55555556 0.55555556 6 2 C6.1875 4.4375 6.1875 4.4375 6 7 C4 9 4 9 1.5 9.25 C-1 9 -1 9 -3 7 C-2.67028521 3.70285207 -2.3773161 2.3773161 0 0 Z " fill="#EEEFF5" transform="translate(198,511)"/>
<path d="M0 0 C-1.03779188 4.84302879 -1.99289652 7.27488549 -6.125 10.25 C-7.07375 10.8275 -8.0225 11.405 -9 12 C-9.99 11.01 -10.98 10.02 -12 9 C-10.6015209 5.5912072 -9.14993067 4.12606165 -6 2.25 C-5.29875 1.82203125 -4.5975 1.3940625 -3.875 0.953125 C-2 0 -2 0 0 0 Z " fill="#21BFE0" transform="translate(334,470)"/>
<path d="M0 0 C0.99 0.33 1.98 0.66 3 1 C2.38983051 6.49152542 2.38983051 6.49152542 0.5625 8.875 C-1 10 -1 10 -3 10 C-5.11629529 10.6830333 -5.11629529 10.6830333 -7 12 C-7.80528889 14.05000871 -7.80528889 14.05000871 -8 16 C-8.66 15.67 -9.32 15.34 -10 15 C-8.90169995 13.05916841 -7.79613495 11.12244672 -6.6875 9.1875 C-6.07261719 8.10855469 -5.45773437 7.02960938 -4.82421875 5.91796875 C-3.34608744 3.55359169 -2.07489444 1.81952282 0 0 Z " fill="#2390CB" transform="translate(312,488)"/>
<path d="M0 0 C1.32421875 1.6796875 1.32421875 1.6796875 2.6875 3.875 C3.37392578 4.95394531 3.37392578 4.95394531 4.07421875 6.0546875 C4.37972656 6.69664062 4.68523437 7.33859375 5 8 C4.67 8.66 4.34 9.32 4 10 C1 6.25 1 6.25 1 4 C-1.18712805 5.60204619 -1.18712805 5.60204619 -3 8 C-2.85650653 11.19954954 -2.85650653 11.19954954 -2 14 C-2.66 14 -3.32 14 -4 14 C-7.22265625 8.82421875 -7.22265625 8.82421875 -8 7 C-6.76759083 3.3027725 -4.20634615 0 0 0 Z " fill="#24B3E1" transform="translate(339,480)"/>
<path d="M0 0 C0.45375 0.474375 0.9075 0.94875 1.375 1.4375 C2.93258204 3.09027808 2.93258204 3.09027808 5 4 C4.505 4.350625 4.01 4.70125 3.5 5.0625 C1.26936034 7.94374289 1.80019379 10.47009026 2 14 C1.01 13.67 0.02 13.34 -1 13 C-0.67 11.35 -0.34 9.7 0 8 C-1.65 9.32 -3.3 10.64 -5 12 C-5.35338623 9.03155565 -5.5417682 6.84401782 -3.88671875 4.265625 C-2.64496832 2.79651181 -1.32662082 1.39295186 0 0 Z " fill="#3A5992" transform="translate(288,529)"/>
<path d="M0 0 C0.33 0.99 0.66 1.98 1 3 C-0.9626228 5.04795423 -2.4277307 5.94976638 -5.26953125 6.19921875 C-7.51954383 6.18858877 -9.75385562 6.12958525 -12 6 C-12 4.35 -12 2.7 -12 1 C-10.37512529 0.83211627 -8.75009558 0.66573213 -7.125 0.5 C-6.22007812 0.4071875 -5.31515625 0.314375 -4.3828125 0.21875 C-2 0 -2 0 0 0 Z " fill="#275EA0" transform="translate(250,501)"/>
<path d="M0 0 C4.19769372 0.24692316 6.52655584 0.6474352 9.9375 3.1875 C12.33274372 6.45374144 12.46009282 8.04320172 12 12 C11.01 12 10.02 12 9 12 C8.62875 10.88625 8.2575 9.7725 7.875 8.625 C6.5205979 5.38621238 6.23787197 5.10727559 2.8125 3.5625 C1.4203125 3.2840625 1.4203125 3.2840625 0 3 C0 2.01 0 1.02 0 0 Z " fill="#1A2067" transform="translate(194,530)"/>
<path d="M0 0 C1.32 0.66 2.64 1.32 4 2 C2.54600704 5.83325416 0.6919885 7.28279605 -3 9 C-5.8125 9.1875 -5.8125 9.1875 -8 9 C-6.64531705 4.12314139 -4.28324091 2.51407619 0 0 Z " fill="#1D387B" transform="translate(231,520)"/>
<path d="M0 0 C0 1.32 0 2.64 0 4 C-0.9590625 4.37125 -0.9590625 4.37125 -1.9375 4.75 C-4.18741541 5.81562433 -4.18741541 5.81562433 -4.75 8.125 C-4.8325 8.74375 -4.915 9.3625 -5 10 C-6.32 10 -7.64 10 -9 10 C-9.32523926 6.42236811 -9.42956587 4.60457419 -7.3125 1.625 C-4.61209763 -0.27258004 -3.22939919 -0.35882213 0 0 Z " fill="#12CEEF" transform="translate(351,456)"/>
<path d="M0 0 C2.625 0.375 2.625 0.375 5 1 C5.625 3.375 5.625 3.375 6 6 C5.34 6.66 4.68 7.32 4 8 C1.375 7.625 1.375 7.625 -1 7 C-1.625 4.625 -1.625 4.625 -2 2 C-1.34 1.34 -0.68 0.68 0 0 Z " fill="#E3E4EF" transform="translate(196,534)"/>
<path d="M0 0 C2.625 0.375 2.625 0.375 5 1 C5.625 3.375 5.625 3.375 6 6 C5.34 6.66 4.68 7.32 4 8 C1.375 7.625 1.375 7.625 -1 7 C-1.625 4.625 -1.625 4.625 -2 2 C-1.34 1.34 -0.68 0.68 0 0 Z " fill="#E0F8FC" transform="translate(348,460)"/>
<path d="M0 0 C0.99 0.33 1.98 0.66 3 1 C1.63629701 3.99220268 0.05091917 6.29026529 -2.125 8.75 C-2.93324219 9.67039062 -2.93324219 9.67039062 -3.7578125 10.609375 C-4.16773438 11.06828125 -4.57765625 11.5271875 -5 12 C-5.33 11.01 -5.66 10.02 -6 9 C-6.66 8.34 -7.32 7.68 -8 7 C-6.02 5.35 -4.04 3.7 -2 2 C-2 2.66 -2 3.32 -2 4 C-1.34 3.34 -0.68 2.68 0 2 C0 1.34 0 0.68 0 0 Z " fill="#1D5398" transform="translate(273,513)"/>
<path d="M0 0 C0.33 1.32 0.66 2.64 1 4 C-0.28813342 4.83878455 -1.58063256 5.67086783 -2.875 6.5 C-3.59429687 6.9640625 -4.31359375 7.428125 -5.0546875 7.90625 C-7 9 -7 9 -9 9 C-8.75 5.625 -8.75 5.625 -8 2 C-5.17700309 -0.23892859 -3.7208921 0 0 0 Z " fill="#30C6EA" transform="translate(341,467)"/>
<path d="M0 0 C4.63425362 -0.32332002 7.28683289 0.1355568 11 3 C11.33 3.99 11.66 4.98 12 6 C9.75 7.1875 9.75 7.1875 7 8 C4.6875 6.8125 4.6875 6.8125 3 5 C3 4.01 3 3.02 3 2 C2.01 2 1.02 2 0 2 C0 1.34 0 0.68 0 0 Z " fill="#25D4F7" transform="translate(328,437)"/>
<path d="M0 0 C0.66 0 1.32 0 2 0 C2 1.65 2 3.3 2 5 C3.32 5.66 4.64 6.32 6 7 C5.67 8.32 5.34 9.64 5 11 C2.32388302 10.63088042 1.1568531 10.15144437 -0.8125 8.25 C-2 6 -2 6 -1.75 3.3125 C-1 1 -1 1 0 0 Z " fill="#224785" transform="translate(286,537)"/>
<path d="M0 0 C0.33 0 0.66 0 1 0 C1 8.91 1 17.82 1 27 C1.99 26.67 2.98 26.34 4 26 C4 27.32 4 28.64 4 30 C3.34 30 2.68 30 2 30 C2 30.66 2 31.32 2 32 C1.34 32 0.68 32 0 32 C0 21.44 0 10.88 0 0 Z " fill="#09185D" transform="translate(213,545)"/>
<path d="M0 0 C1.76462683 3.08809695 2 4.23312136 2 8 C3.32 8.66 4.64 9.32 6 10 C4.3125 10.75 4.3125 10.75 2 11 C-0.75 9.375 -0.75 9.375 -3 7 C-3.5 4.375 -3.5 4.375 -3 2 C-2.01 1.34 -1.02 0.68 0 0 Z " fill="#212E6F" transform="translate(194,514)"/>
<path d="M0 0 C0.33 0 0.66 0 1 0 C1 2.64 1 5.28 1 8 C-1.76264289 8.59732819 -4.16032769 9 -7 9 C-7.33 7.68 -7.66 6.36 -8 5 C-7.21625 4.855625 -6.4325 4.71125 -5.625 4.5625 C-3.03578982 4.12201075 -3.03578982 4.12201075 -1 3 C-0.67 2.01 -0.34 1.02 0 0 Z " fill="#1F4B8F" transform="translate(297,524)"/>
<path d="M0 0 C0 0.66 0 1.32 0 2 C-0.66 2 -1.32 2 -2 2 C-2.33 2.99 -2.66 3.98 -3 5 C-4.65 5.33 -6.3 5.66 -8 6 C-8.12375 5.360625 -8.2475 4.72125 -8.375 4.0625 C-8.684375 3.0415625 -8.684375 3.0415625 -9 2 C-9.66 1.67 -10.32 1.34 -11 1 C-3.57142857 -1.42857143 -3.57142857 -1.42857143 0 0 Z " fill="#2C4E8B" transform="translate(223,508)"/>
<path d="M0 0 C0.33 0.66 0.66 1.32 1 2 C4.465 1.505 4.465 1.505 8 1 C8.33 2.32 8.66 3.64 9 5 C8.030625 5.28875 7.06125 5.5775 6.0625 5.875 C2.89335797 6.64214682 2.89335797 6.64214682 2 9 C1.34 6.03 0.68 3.06 0 0 Z " fill="#304483" transform="translate(206,509)"/>
<path d="M0 0 C-1.25 1.5 -1.25 1.5 -3 3 C-4.32 3 -5.64 3 -7 3 C-7 3.66 -7 4.32 -7 5 C-15.261959 8.62870159 -15.261959 8.62870159 -20 7 C-20 6.67 -20 6.34 -20 6 C-19.443125 5.82984375 -18.88625 5.6596875 -18.3125 5.484375 C-13.48822254 3.95234094 -9.13145259 2.17341752 -4.7265625 -0.328125 C-3 -1 -3 -1 0 0 Z " fill="#285F9C" transform="translate(319,554)"/>
<path d="M0 0 C1.26066301 3.78198904 0.42292658 5.36363208 -1 9 C-2 10 -2 10 -4.5625 10.0625 C-5.366875 10.041875 -6.17125 10.02125 -7 10 C-7.33 9.01 -7.66 8.02 -8 7 C-5.36 4.69 -2.72 2.38 0 0 Z " fill="#4EAEDD" transform="translate(264,466)"/>
<path d="M0 0 C6.75 0.75 6.75 0.75 9 3 C8.34 3.66 7.68 4.32 7 5 C7.33 5.66 7.66 6.32 8 7 C5.03 6.01 2.06 5.02 -1 4 C-0.67 2.68 -0.34 1.36 0 0 Z " fill="#354284" transform="translate(197,506)"/>
<path d="M0 0 C1.625 1.5 1.625 1.5 3 4 C2.65955497 6.83163803 1.86771089 9.25986036 1 12 C0.67 12 0.34 12 0 12 C0 10.35 0 8.7 0 7 C-0.99 7.33 -1.98 7.66 -3 8 C-3.75 6.25 -3.75 6.25 -4 4 C-2.0625 1.75 -2.0625 1.75 0 0 Z " fill="#34437F" transform="translate(249,525)"/>
<path d="M0 0 C-0.33 2.97 -0.66 5.94 -1 9 C-1.66 8.34 -2.32 7.68 -3 7 C-3.99 7.66 -4.98 8.32 -6 9 C-6.66 8.34 -7.32 7.68 -8 7 C-7.34 7 -6.68 7 -6 7 C-5.896875 6.21625 -5.79375 5.4325 -5.6875 4.625 C-4.82572663 1.33459258 -3.53157582 0 0 0 Z " fill="#2E6BA9" transform="translate(300,520)"/>
<path d="M0 0 C1.65 0.33 3.3 0.66 5 1 C4.34 2.65 3.68 4.3 3 6 C1.68 5.34 0.36 4.68 -1 4 C-0.67 4.99 -0.34 5.98 0 7 C-0.99 7.33 -1.98 7.66 -3 8 C-3.33 7.01 -3.66 6.02 -4 5 C-2.0625 2.3125 -2.0625 2.3125 0 0 Z " fill="#2769A8" transform="translate(274,509)"/>
<path d="M0 0 C0.99 0 1.98 0 3 0 C3 0.66 3 1.32 3 2 C3.99 2 4.98 2 6 2 C6.33 3.65 6.66 5.3 7 7 C5.02 7.66 3.04 8.32 1 9 C1 8.34 1 7.68 1 7 C1.66 7 2.32 7 3 7 C2.67 6.01 2.34 5.02 2 4 C1.34 4 0.68 4 0 4 C0 2.68 0 1.36 0 0 Z " fill="#172572" transform="translate(214,568)"/>
<path d="M0 0 C4.23561851 -0.33884948 6.60776636 -0.19968258 10.4375 1.75 C11.283125 2.4925 12.12875 3.235 13 4 C13 5.32 13 6.64 13 8 C13.99 8.33 14.98 8.66 16 9 C15.01 9 14.02 9 13 9 C12.67 9.66 12.34 10.32 12 11 C11.773125 10.2575 11.54625 9.515 11.3125 8.75 C9.71276043 5.3981647 8.09805569 4.01733859 5 2 C2.31492671 1.21053391 2.31492671 1.21053391 0 1 C0 0.67 0 0.34 0 0 Z " fill="#424783" transform="translate(194,529)"/>
<path d="M0 0 C3.375 0.3125 3.375 0.3125 7 1 C7.66 1.99 8.32 2.98 9 4 C6.36 4.33 3.72 4.66 1 5 C0.67 3.35 0.34 1.7 0 0 Z " fill="#0E6377" transform="translate(242,486)"/>
<path d="M0 0 C0.33 0 0.66 0 1 0 C1 6.27 1 12.54 1 19 C0.67 19 0.34 19 0 19 C-0.33 15.04 -0.66 11.08 -1 7 C-1.99 7 -2.98 7 -4 7 C-2.68 4.69 -1.36 2.38 0 0 Z " fill="#E5F3F7" transform="translate(661,500)"/>
<path d="M0 0 C-1.49097658 3.7952131 -3.75700849 5.61042731 -7 8 C-7.33 6.68 -7.66 5.36 -8 4 C-3.375 0 -3.375 0 0 0 Z " fill="#1E93D9" transform="translate(697,523)"/>
<path d="M0 0 C0.99 1.32 1.98 2.64 3 4 C0.8614515 6.1385485 -0.13275314 6.42655063 -3 7 C-3.33 8.32 -3.66 9.64 -4 11 C-4.49230769 4.6 -4.49230769 4.6 -2 1.5625 C-1.34 1.046875 -0.68 0.53125 0 0 Z " fill="#2B3477" transform="translate(193,530)"/>
<path d="M0 0 C0.66 0 1.32 0 2 0 C1.34 3.3 0.68 6.6 0 10 C0.99 10 1.98 10 3 10 C3 10.66 3 11.32 3 12 C1.02 12 -0.96 12 -3 12 C-2.49202991 7.6822542 -1.80317221 3.96697886 0 0 Z " fill="#2F558E" transform="translate(205,489)"/>
<path d="M0 0 C0.33 0.99 0.66 1.98 1 3 C-0.32 4.32 -1.64 5.64 -3 7 C-6.3 6.01 -9.6 5.02 -13 4 C-13 3.67 -13 3.34 -13 3 C-11.96939453 3.05220703 -11.96939453 3.05220703 -10.91796875 3.10546875 C-10.01691406 3.13253906 -9.11585938 3.15960937 -8.1875 3.1875 C-7.29417969 3.22230469 -6.40085937 3.25710938 -5.48046875 3.29296875 C-2.58352485 2.95081002 -1.77444972 2.24606427 0 0 Z " fill="#3B538F" transform="translate(264,521)"/>
<path d="M0 0 C2.97 0.495 2.97 0.495 6 1 C5.67 2.32 5.34 3.64 5 5 C2.69 5.33 0.38 5.66 -2 6 C-1.34 4.02 -0.68 2.04 0 0 Z " fill="#2B397A" transform="translate(251,539)"/>
<path d="M0 0 C0.99 0.99 1.98 1.98 3 3 C1.37660195 4.70884005 -0.29319053 6.37446717 -2 8 C-2.66 8 -3.32 8 -4 8 C-3.50168276 4.31245243 -2.89932357 2.39509338 0 0 Z " fill="#2765AD" transform="translate(329,551)"/>
<path d="M0 0 C0.66 1.32 1.32 2.64 2 4 C1.34 4 0.68 4 0 4 C0.309375 5.6396875 0.309375 5.6396875 0.625 7.3125 C1 11 1 11 -1 14 C-2.41933513 9.74199462 -2.72651677 5.77088462 -1 1.5625 C-0.67 1.046875 -0.34 0.53125 0 0 Z " fill="#3CA5DA" transform="translate(688,528)"/>
<path d="M0 0 C0.33 0 0.66 0 1 0 C1 2.64 1 5.28 1 8 C2.65 8 4.3 8 6 8 C6.33 8.99 6.66 9.98 7 11 C4.69 11 2.38 11 0 11 C0 7.37 0 3.74 0 0 Z " fill="#1998E1" transform="translate(663,539)"/>
<path d="M0 0 C0 2.64 0 5.28 0 8 C-1.32 8 -2.64 8 -4 8 C-4.1875 5.125 -4.1875 5.125 -4 2 C-1 0 -1 0 0 0 Z " fill="#182874" transform="translate(194,535)"/>
<path d="M0 0 C2.125 0.375 2.125 0.375 4 1 C3.375 2.9375 3.375 2.9375 2 5 C-1.125 5.75 -1.125 5.75 -4 6 C-2.84826645 3.53199953 -1.95216435 1.95216435 0 0 Z " fill="#245A9B" transform="translate(232,501)"/>
<path d="M0 0 C0.66 0.99 1.32 1.98 2 3 C1.01 3.66 0.02 4.32 -1 5 C-2.19232613 7.05003955 -2.19232613 7.05003955 -3 9 C-3.309375 8.21625 -3.61875 7.4325 -3.9375 6.625 C-4.92875038 4.07669872 -4.92875038 4.07669872 -6 2 C-4.02 1.34 -2.04 0.68 0 0 Z " fill="#2877B0" transform="translate(251,489)"/>
<path d="M0 0 C0.66 0 1.32 0 2 0 C2 3.63 2 7.26 2 11 C1.01 11 0.02 11 -1 11 C-0.67 7.37 -0.34 3.74 0 0 Z " fill="#203C61" transform="translate(582,517)"/>
<path d="M0 0 C1.32 0.66 2.64 1.32 4 2 C3.34 3.32 2.68 4.64 2 6 C0.35 5.01 -1.3 4.02 -3 3 C-2.01 2.01 -1.02 1.02 0 0 Z " fill="#23427C" transform="translate(231,520)"/>
<path d="M0 0 C2 3 2 3 1.6875 5.3125 C1.460625 6.199375 1.23375 7.08625 1 8 C0.66055205 9.99897128 0.32578384 11.99875639 0 14 C-0.33 14 -0.66 14 -1 14 C-1.02705729 12.22925083 -1.04642195 10.45838289 -1.0625 8.6875 C-1.07410156 7.70136719 -1.08570313 6.71523438 -1.09765625 5.69921875 C-1 3 -1 3 0 0 Z " fill="#49637F" transform="translate(529,515)"/>
<path d="M0 0 C2.56616632 3.84924948 2.55097676 6.4349304 3 11 C-0.44216672 8.3401439 -0.99504674 5.09711714 -2 1 C-1.34 0.67 -0.68 0.34 0 0 Z " fill="#233278" transform="translate(205,509)"/>
<path d="M0 0 C-0.99 0.33 -1.98 0.66 -3 1 C-3.33 1.66 -3.66 2.32 -4 3 C-6.06640625 3.6328125 -6.06640625 3.6328125 -8.5625 4.125 C-9.38878906 4.29257812 -10.21507812 4.46015625 -11.06640625 4.6328125 C-11.70449219 4.75398438 -12.34257813 4.87515625 -13 5 C-4.9 -1.75 -4.9 -1.75 0 0 Z " fill="#203B66" transform="translate(551,498)"/>
<path d="M0 0 C-1.63412443 1.70840281 -2.86906094 2.93453047 -5 4 C-6.99960012 4.039992 -9.00047242 4.04346799 -11 4 C-11 3.34 -11 2.68 -11 2 C-9.54494642 1.47007308 -8.08581873 0.9513211 -6.625 0.4375 C-5.81289063 0.14746094 -5.00078125 -0.14257812 -4.1640625 -0.44140625 C-2 -1 -2 -1 0 0 Z " fill="#29D1F1" transform="translate(358,469)"/>
<path d="M0 0 C0.33 0 0.66 0 1 0 C1.125 2.875 1.125 2.875 1 6 C0.34 6.66 -0.32 7.32 -1 8 C-1.33 7.01 -1.66 6.02 -2 5 C-2.99 5.33 -3.98 5.66 -5 6 C-4.67 4.68 -4.34 3.36 -4 2 C-3.01 2 -2.02 2 -1 2 C-0.67 1.34 -0.34 0.68 0 0 Z " fill="#495C92" transform="translate(265,532)"/>
<path d="M0 0 C2.97 0 5.94 0 9 0 C9 0.33 9 0.66 9 1 C6.69 1.66 4.38 2.32 2 3 C1.67 5.97 1.34 8.94 1 12 C0.67 12 0.34 12 0 12 C0 8.04 0 4.08 0 0 Z " fill="#031D51" transform="translate(431,482)"/>
<path d="M0 0 C0.66 0.33 1.32 0.66 2 1 C0.66666667 3.66666667 -0.66666667 6.33333333 -2 9 C-2.66 9 -3.32 9 -4 9 C-2.94124926 5.59687262 -1.99097846 2.98646769 0 0 Z " fill="#217FBC" transform="translate(337,530)"/>
<path d="M0 0 C0.66 0.66 1.32 1.32 2 2 C1.01 2 0.02 2 -1 2 C-1.33 2.99 -1.66 3.98 -2 5 C-1.34 5.66 -0.68 6.32 0 7 C-1.32 7.33 -2.64 7.66 -4 8 C-4 6.68 -4 5.36 -4 4 C-4.66 3.67 -5.32 3.34 -6 3 C-4.02 2.01 -2.04 1.02 0 0 Z " fill="#3669A2" transform="translate(231,501)"/>
<path d="M0 0 C0.99 1.32 1.98 2.64 3 4 C2.67 4.66 2.34 5.32 2 6 C1.01 5.67 0.02 5.34 -1 5 C-3.6569191 5.87914688 -3.6569191 5.87914688 -6 7 C-4.02 4.69 -2.04 2.38 0 0 Z " fill="#26AEDB" transform="translate(322,477)"/>
<path d="M0 0 C0.33 1.32 0.66 2.64 1 4 C0.01 4.66 -0.98 5.32 -2 6 C-2.99 4.35 -3.98 2.7 -5 1 C-3 0 -3 0 0 0 Z " fill="#19C8EC" transform="translate(319,453)"/>
<path d="M0 0 C2.64 0.33 5.28 0.66 8 1 C6 3 6 3 2.375 3.125 C1.26125 3.08375 0.1475 3.0425 -1 3 C-0.67 2.01 -0.34 1.02 0 0 Z " fill="#2B387E" transform="translate(195,544)"/>
<path d="M0 0 C-1.33333333 0.66666667 -2.66666667 1.33333333 -4 2 C-4.639375 2.391875 -5.27875 2.78375 -5.9375 3.1875 C-8.61798826 4.24344992 -10.27167933 3.75786685 -13 3 C-13 2.67 -13 2.34 -13 2 C-8.46298506 0.54815522 -4.81938524 -0.23509196 0 0 Z " fill="#255192" transform="translate(312,558)"/>
<path d="M0 0 C1 3 1 3 0.0625 5.1875 C-0.4634375 6.0846875 -0.4634375 6.0846875 -1 7 C-2.65 7 -4.3 7 -6 7 C-4.71937515 5.2925002 -3.38232443 3.62626404 -2 2 C-1.34 2 -0.68 2 0 2 C0 1.34 0 0.68 0 0 Z " fill="#19BAE4" transform="translate(333,470)"/>
<path d="M0 0 C0.99 0.33 1.98 0.66 3 1 C2.360625 1.268125 1.72125 1.53625 1.0625 1.8125 C-1.33131686 2.88667752 -1.33131686 2.88667752 -2 6 C-2.99 5.67 -3.98 5.34 -5 5 C-3.35 3.35 -1.7 1.7 0 0 Z " fill="#1E6BAE" transform="translate(327,545)"/>
<path d="M0 0 C1.32 0.33 2.64 0.66 4 1 C3.5359375 1.86625 3.5359375 1.86625 3.0625 2.75 C2.07416636 4.84294184 1.4831387 6.74535275 1 9 C0.67 9 0.34 9 0 9 C0 6.03 0 3.06 0 0 Z " fill="#071E4F" transform="translate(492,498)"/>
<path d="M0 0 C3.96 0 7.92 0 12 0 C10.35 1.32 8.7 2.64 7 4 C6.67 3.01 6.34 2.02 6 1 C4.02 1 2.04 1 0 1 C0 0.67 0 0.34 0 0 Z " fill="#3F97D0" transform="translate(261,451)"/>
<path d="M0 0 C0.66 0.33 1.32 0.66 2 1 C0.92598892 3.91517292 0.22189824 5.77810176 -2 8 C-2.6875 5.6875 -2.6875 5.6875 -3 3 C-1.5625 1.1875 -1.5625 1.1875 0 0 Z " fill="#3A9FD7" transform="translate(648,518)"/>
<path d="M0 0 C0.66 1.32 1.32 2.64 2 4 C0.8125 5.5625 0.8125 5.5625 -1 7 C-3.6875 6.6875 -3.6875 6.6875 -6 6 C-5.38125 5.7525 -4.7625 5.505 -4.125 5.25 C-1.64931313 3.79371361 -1.04874998 2.62187494 0 0 Z " fill="#424C88" transform="translate(204,515)"/>
<path d="M0 0 C1.32 0 2.64 0 4 0 C4.33 1.65 4.66 3.3 5 5 C4.01 5 3.02 5 2 5 C1.67 4.34 1.34 3.68 1 3 C0.34 2.67 -0.32 2.34 -1 2 C-0.67 1.34 -0.34 0.68 0 0 Z " fill="#1B6C99" transform="translate(238,486)"/>
<path d="M0 0 C0.99 0.33 1.98 0.66 3 1 C2.67 2.98 2.34 4.96 2 7 C1.67 5.68 1.34 4.36 1 3 C-0.32 3.33 -1.64 3.66 -3 4 C-2.01 2.68 -1.02 1.36 0 0 Z " fill="#249AD1" transform="translate(312,488)"/>
<path d="M0 0 C0.33 1.32 0.66 2.64 1 4 C0.34 4 -0.32 4 -1 4 C-1 4.66 -1 5.32 -1 6 C-1.66 6 -2.32 6 -3 6 C-3 4.35 -3 2.7 -3 1 C-2.01 0.67 -1.02 0.34 0 0 Z " fill="#131C64" transform="translate(216,571)"/>
<path d="M0 0 C2 1.375 2 1.375 4 3 C4 3.66 4 4.32 4 5 C4.66 5.33 5.32 5.66 6 6 C4.68 6 3.36 6 2 6 C1.34 5.34 0.68 4.68 0 4 C0 2.68 0 1.36 0 0 Z " fill="#2F9FDC" transform="translate(753,542)"/>
<path d="M0 0 C0.66 0 1.32 0 2 0 C2 2.31 2 4.62 2 7 C0.68 6.34 -0.64 5.68 -2 5 C-1.34 3.35 -0.68 1.7 0 0 Z " fill="#1D3F7F" transform="translate(286,537)"/>
<path d="M0 0 C-0.33 1.32 -0.66 2.64 -1 4 C-2.65 4.33 -4.3 4.66 -6 5 C-3.74193548 0 -3.74193548 0 0 0 Z " fill="#2C79B7" transform="translate(301,517)"/>
<path d="M0 0 C0.66 0.99 1.32 1.98 2 3 C0.68 4.65 -0.64 6.3 -2 8 C-2.66 7.67 -3.32 7.34 -4 7 C-2.68 4.69 -1.36 2.38 0 0 Z " fill="#38A3D9" transform="translate(646,509)"/>
<path d="M0 0 C1.65 0 3.3 0 5 0 C3.35 1.65 1.7 3.3 0 5 C-0.66 4.67 -1.32 4.34 -2 4 C-1.34 2.68 -0.68 1.36 0 0 Z " fill="#30B9E1" transform="translate(326,477)"/>
</svg>
